# xmcd
#
# Track frame offsets:
#       150
#       10230
#       26747
#       46725
#       59700
#       71590
#       86650
#       115397
#       130712
#       144227
#       158075
#       170240
#       181857
#       194645
#       209727
#       221607
#       234402
#       247897
#       260775
#       274802
#
# Disc length: 3880 seconds
#
# Revision: 3
# Processed by: cddbd v1.5.1PL0 Copyright (c) Steve Scherf et al.
# Submitted via: MusiCat 1.1
#
DISCID=300f2614
DTITLE=Ray Charles - His Greatest Hits [CD2)
DYEAR=1992
DGENRE=
TTITLE0=Busted
TTITLE1=Without Love (there Is Nothing)
TTITLE2=That Lucky Old Sun
TTITLE3=My Heart Cries for You
TTITLE4=Baby Don't You Cry
TTITLE5=Smack Dab in the Middle
TTITLE6=Makin Whoopee Parts 1 and 2
TTITLE7=I'm a Fool to Care
TTITLE8=Crying Time
TTITLE9=Let's Go Get Stoned
TTITLE10=Together Again
TTITLE11=I Chose to Sing the Blues
TTITLE12=I Don't Need No Doctor
TTITLE13=Here We Go Again
TTITLE14=In the Heat of the Night
TTITLE15=Yesterday
TTITLE16=Eleanor Rigby
TTITLE17=If You Were Mine
TTITLE18=Don't Change on Me
TTITLE19=America the Beautiful
EXTD=\n\nMPC
EXTT0=
EXTT1=
EXTT2=
EXTT3=
EXTT4=
EXTT5=
EXTT6=
EXTT7=
EXTT8=
EXTT9=
EXTT10=
EXTT11=
EXTT12=
EXTT13=
EXTT14=
EXTT15=
EXTT16=
EXTT17=
EXTT18=
EXTT19=
PLAYORDER=
